<?xml version="1.0" standalone="no"?>
<!DOCTYPE svg PUBLIC "-//W3C//DTD SVG 20010904//EN"
 "http://www.w3.org/TR/2001/REC-SVG-20010904/DTD/svg10.dtd">
<svg version="1.0" xmlns="http://www.w3.org/2000/svg"
 width="1080.000000pt" height="1080.000000pt" viewBox="0 0 1080.000000 1080.000000"
 preserveAspectRatio="xMidYMid meet">
<metadata>
Created by potrace 1.14, written by Peter Selinger 2001-2017
</metadata>
<g transform="translate(0.000000,1080.000000) scale(0.100000,-0.100000)"
fill="#000000" stroke="none">
<path d="M5128 10795 c-2 -1 -48 -6 -103 -9 -55 -4 -116 -8 -135 -10 -19 -3
-64 -7 -100 -11 -36 -3 -92 -10 -125 -15 -33 -5 -78 -12 -100 -15 -22 -3 -65
-10 -95 -16 -30 -6 -77 -14 -105 -19 -346 -63 -786 -201 -1140 -356 -140 -62
-356 -170 -495 -250 -120 -68 -407 -249 -420 -265 -3 -3 -28 -21 -55 -40 -43
-29 -139 -101 -195 -146 -83 -66 -159 -129 -221 -183 -118 -102 -435 -425
-538 -545 -125 -147 -113 -132 -228 -285 -279 -372 -513 -789 -681 -1210 -59
-148 -161 -440 -178 -510 -2 -8 -20 -76 -39 -150 -35 -129 -70 -286 -81 -360
-3 -19 -7 -42 -10 -51 -2 -9 -7 -34 -10 -55 -2 -22 -7 -50 -9 -64 -3 -14 -8
-43 -11 -65 -2 -22 -7 -53 -9 -70 -3 -16 -7 -55 -10 -85 -4 -30 -8 -68 -10
-85 -27 -207 -27 -809 0 -1045 2 -19 6 -61 9 -92 3 -32 8 -68 10 -80 3 -13 8
-45 11 -73 3 -27 8 -59 10 -70 3 -11 7 -36 10 -55 10 -70 24 -147 45 -240 11
-52 23 -106 26 -120 16 -80 88 -333 131 -459 148 -442 347 -853 601 -1241 87
-133 228 -330 291 -406 14 -18 44 -54 66 -80 272 -327 583 -626 916 -876 418
-316 863 -561 1354 -745 177 -66 398 -138 462 -149 15 -3 30 -7 35 -10 4 -3
16 -7 25 -9 10 -2 48 -11 86 -19 37 -9 97 -23 135 -31 165 -38 410 -77 626
-100 262 -27 794 -27 1050 0 25 3 65 7 89 10 23 2 76 9 117 15 41 6 93 13 115
16 141 20 471 93 630 139 238 70 337 104 519 176 590 235 1129 569 1606 993
103 93 415 411 495 506 44 52 84 100 90 106 5 6 21 26 35 44 34 45 148 193
158 205 17 21 232 346 232 350 0 3 12 24 27 48 15 23 32 51 38 62 6 11 40 72
75 135 188 339 365 785 469 1180 43 162 91 387 106 496 3 17 11 74 19 125 8
52 18 121 21 154 4 33 8 76 10 95 27 242 27 818 -1 1054 -9 77 -26 211 -29
235 -3 13 -7 43 -10 65 -4 23 -8 48 -9 56 -2 8 -6 38 -10 65 -5 28 -16 86 -27
130 -10 45 -20 92 -22 105 -46 243 -209 737 -332 1006 -14 30 -25 56 -25 59
-1 2 -31 64 -67 137 -138 277 -321 575 -501 818 -47 63 -88 117 -92 120 -3 3
-13 14 -21 26 -86 125 -400 459 -635 675 -234 215 -618 490 -939 671 -332 188
-640 323 -1005 439 -169 55 -184 59 -208 64 -11 2 -54 13 -94 24 -40 11 -84
23 -98 25 -14 3 -43 10 -65 15 -38 9 -228 46 -287 56 -54 10 -138 22 -213 31
-27 3 -58 8 -67 9 -9 2 -57 7 -105 10 -48 4 -101 9 -118 12 -34 5 -661 13
-667 8z m-1118 -1809 c151 -24 347 -197 385 -341 24 -93 26 -284 27 -2238 l2
-1827 -42 -83 c-23 -45 -65 -108 -93 -139 -50 -57 -163 -138 -190 -138 -8 0
-19 -4 -25 -9 -19 -17 -110 -32 -183 -30 -174 5 -318 84 -423 233 -72 104 -77
130 -85 441 -10 364 -10 3400 -1 3548 11 169 25 244 58 312 59 121 226 254
344 272 17 3 32 6 33 7 5 5 149 -1 193 -8z m1545 -2395 c79 -28 155 -80 227
-155 102 -105 124 -167 135 -387 8 -179 8 -1240 -1 -1369 -3 -52 -14 -115 -23
-140 -48 -127 -185 -274 -298 -318 -149 -59 -343 -43 -461 38 -110 77 -221
224 -239 320 -26 131 -25 1491 0 1620 2 14 8 39 11 55 23 108 171 266 302 322
105 45 242 51 347 14z m1505 -11 c163 -58 300 -193 330 -326 12 -54 18 -97 27
-224 4 -47 8 -924 8 -1950 l2 -1865 -46 -95 c-73 -152 -181 -250 -338 -307
-71 -26 -229 -23 -308 6 -151 55 -284 185 -332 323 -22 63 -25 332 -25 2258
l-1 1805 36 75 c73 152 223 285 363 319 66 17 211 7 284 -19z"/>
</g>
</svg>
